<?xml version="1.0" encoding="UTF-8" standalone="no"?><svg xmlns="http://www.w3.org/2000/svg" xmlns:xlink="http://www.w3.org/1999/xlink" contentScriptType="application/ecmascript" contentStyleType="text/css" height="356px" preserveAspectRatio="none" style="width:481px;height:356px;" version="1.1" viewBox="0 0 481 356" width="481px" zoomAndPan="magnify"><defs><filter height="300%" id="f1hl4rg4bzv6zb" width="300%" x="-1" y="-1"><feGaussianBlur result="blurOut" stdDeviation="2.0"/><feColorMatrix in="blurOut" result="blurOut2" type="matrix" values="0 0 0 0 0 0 0 0 0 0 0 0 0 0 0 0 0 0 .4 0"/><feOffset dx="4.0" dy="4.0" in="blurOut2" result="blurOut3"/><feBlend in="SourceGraphic" in2="blurOut3" mode="normal"/></filter></defs><g><!--cluster de.gematik.ti.cardreader.provider.usb.tactivo--><polygon fill="#FFFFFF" filter="url(#f1hl4rg4bzv6zb)" points="22,24,347,24,354,47.6094,459,47.6094,459,344,22,344,22,24" style="stroke: #000000; stroke-width: 1.5;"/><line style="stroke: #000000; stroke-width: 1.5;" x1="22" x2="354" y1="47.6094" y2="47.6094"/><text fill="#000000" font-family="sans-serif" font-size="14" font-weight="bold" lengthAdjust="spacingAndGlyphs" textLength="319" x="26" y="40.5332">de.gematik.ti.cardreader.provider.usb.tactivo</text><!--cluster de.gematik.ti.cardreader.provider.usb.tactivo.control--><polygon fill="#FFFFFF" filter="url(#f1hl4rg4bzv6zb)" points="46,68,425,68,432,91.6094,435,91.6094,435,320,46,320,46,68" style="stroke: #000000; stroke-width: 1.5;"/><line style="stroke: #000000; stroke-width: 1.5;" x1="46" x2="432" y1="91.6094" y2="91.6094"/><text fill="#000000" font-family="sans-serif" font-size="14" font-weight="bold" lengthAdjust="spacingAndGlyphs" textLength="373" x="50" y="84.5332">de.gematik.ti.cardreader.provider.usb.tactivo.control</text><!--class TactivoCardChecker--><rect fill="#FEFECE" filter="url(#f1hl4rg4bzv6zb)" height="200.1953" id="TactivoCardChecker" style="stroke: #A80036; stroke-width: 1.5;" width="242" x="119" y="104"/><ellipse cx="180.25" cy="120" fill="#ADD1B2" rx="11" ry="11" style="stroke: #A80036; stroke-width: 1.0;"/><path d="M182.25,116.5 Q182.4531,116 182.6875,115.75 Q182.9219,115.5 183.1875,115.5 Q183.6563,115.5 183.9531,115.7813 Q184.25,116.0625 184.25,116.7188 L184.25,118.2813 Q184.25,118.9375 183.9688,119.2188 Q183.6875,119.5 183.25,119.5 Q182.8594,119.5 182.6094,119.3281 Q182.3594,119.1563 182.25,118.7031 Q182.2031,118.3906 182.0313,118.2188 Q181.7188,117.8906 181.1563,117.6953 Q180.5938,117.5 180.0313,117.5 Q179.3281,117.5 178.7422,117.7813 Q178.1563,118.0625 177.7031,118.6875 Q177.25,119.3125 177.25,120.1719 L177.25,121.0938 Q177.25,122.125 178.0938,122.8125 Q178.9375,123.5 180.4375,123.5 Q181.3281,123.5 181.9531,123.2969 Q182.3125,123.1875 182.7188,122.8281 Q182.9844,122.625 183.125,122.5625 Q183.2656,122.5 183.4375,122.5 Q183.7656,122.5 184.0078,122.7578 Q184.25,123.0156 184.25,123.375 Q184.25,123.7188 183.9063,124.125 Q183.4063,124.7188 182.6094,125.0469 Q181.5625,125.5 180.2813,125.5 Q178.7813,125.5 177.5781,124.9063 Q176.6094,124.4375 175.9297,123.4219 Q175.25,122.4063 175.25,121.2031 L175.25,120.1094 Q175.25,118.8594 175.8516,117.7656 Q176.4531,116.6719 177.5078,116.0859 Q178.5625,115.5 179.75,115.5 Q180.4688,115.5 181.0938,115.75 Q181.7188,116 182.25,116.5 Z "/><text fill="#000000" font-family="sans-serif" font-size="12" lengthAdjust="spacingAndGlyphs" textLength="111" x="200.75" y="124.9102">TactivoCardChecker</text><line style="stroke: #A80036; stroke-width: 1.5;" x1="120" x2="360" y1="136" y2="136"/><rect fill="none" height="6" style="stroke: #C82930; stroke-width: 1.0;" width="6" x="127" y="145.418"/><text fill="#000000" font-family="sans-serif" font-size="11" lengthAdjust="spacingAndGlyphs" text-decoration="underline" textLength="65" x="139" y="151.4189">LOG : Logger</text><rect fill="none" height="6" style="stroke: #C82930; stroke-width: 1.0;" width="6" x="127" y="159.2539"/><text fill="#000000" font-family="sans-serif" font-size="11" lengthAdjust="spacingAndGlyphs" textLength="126" x="139" y="165.2549">cardReader : ICardReader</text><rect fill="none" height="6" style="stroke: #C82930; stroke-width: 1.0;" width="6" x="127" y="173.0898"/><text fill="#000000" font-family="sans-serif" font-size="11" lengthAdjust="spacingAndGlyphs" textLength="76" x="139" y="179.0908">active : boolean</text><rect fill="none" height="6" style="stroke: #C82930; stroke-width: 1.0;" width="6" x="127" y="186.9258"/><text fill="#000000" font-family="sans-serif" font-size="11" lengthAdjust="spacingAndGlyphs" text-decoration="underline" textLength="63" x="139" y="192.9268">TIMEOUT : int</text><rect fill="none" height="6" style="stroke: #C82930; stroke-width: 1.0;" width="6" x="127" y="200.7617"/><text fill="#000000" font-family="sans-serif" font-size="11" lengthAdjust="spacingAndGlyphs" textLength="216" x="139" y="206.7627">cardEventTransmitter : CardEventTransmitter</text><rect fill="none" height="6" style="stroke: #C82930; stroke-width: 1.0;" width="6" x="127" y="214.5977"/><text fill="#000000" font-family="sans-serif" font-size="11" lengthAdjust="spacingAndGlyphs" textLength="130" x="139" y="220.5986">currentCardState : boolean</text><line style="stroke: #A80036; stroke-width: 1.5;" x1="120" x2="360" y1="227.0156" y2="227.0156"/><ellipse cx="130" cy="239.4336" fill="#84BE84" rx="3" ry="3" style="stroke: #038048; stroke-width: 1.0;"/><text fill="#000000" font-family="sans-serif" font-size="11" lengthAdjust="spacingAndGlyphs" textLength="106" x="139" y="242.4346">TactivoCardChecker()</text><ellipse cx="130" cy="253.2695" fill="#84BE84" rx="3" ry="3" style="stroke: #038048; stroke-width: 1.0;"/><text fill="#000000" font-family="sans-serif" font-size="11" lengthAdjust="spacingAndGlyphs" textLength="57" x="139" y="256.2705">shutdown()</text><ellipse cx="130" cy="267.1055" fill="#84BE84" rx="3" ry="3" style="stroke: #038048; stroke-width: 1.0;"/><text fill="#000000" font-family="sans-serif" font-size="11" lengthAdjust="spacingAndGlyphs" textLength="24" x="139" y="270.1064">run()</text><rect fill="#F24D5C" height="6" style="stroke: #C82930; stroke-width: 1.0;" width="6" x="127" y="277.9414"/><text fill="#000000" font-family="sans-serif" font-size="11" lengthAdjust="spacingAndGlyphs" textLength="157" x="139" y="283.9424">checkCardStateAndSendEvent()</text><rect fill="#F24D5C" height="6" style="stroke: #C82930; stroke-width: 1.0;" width="6" x="127" y="291.7773"/><text fill="#000000" font-family="sans-serif" font-size="11" lengthAdjust="spacingAndGlyphs" textLength="76" x="139" y="297.7783">isCardPresent()</text><!--
@startuml

  package de.gematik.ti.cardreader.provider.usb.tactivo {
    package de.gematik.ti.cardreader.provider.usb.tactivo.control {
      class TactivoCardChecker {
          {static} - LOG : Logger
          - cardReader : ICardReader
          - active : boolean
          {static} - TIMEOUT : int
          - cardEventTransmitter : CardEventTransmitter
          - currentCardState : boolean
          + TactivoCardChecker()
          + shutdown()
          + run()
          - checkCardStateAndSendEvent()
          - isCardPresent()
      }
    }
  }

@enduml

PlantUML version 1.2019.06(Fri May 24 19:10:25 CEST 2019)
(APACHE source distribution)
Java Runtime: OpenJDK Runtime Environment
JVM: OpenJDK 64-Bit Server VM
Java Version: 1.8.0_202-release-1483-b03
Operating System: Windows 7
OS Version: 6.1
Default Encoding: Cp1252
Language: de
Country: DE
--></g></svg>