<?xml version="1.0" encoding="UTF-8" standalone="no"?><svg xmlns="http://www.w3.org/2000/svg" xmlns:xlink="http://www.w3.org/1999/xlink" contentScriptType="application/ecmascript" contentStyleType="text/css" height="386px" preserveAspectRatio="none" style="width:436px;height:386px;" version="1.1" viewBox="0 0 436 386" width="436px" zoomAndPan="magnify"><defs><filter height="300%" id="f1da2lg0ndjsju" width="300%" x="-1" y="-1"><feGaussianBlur result="blurOut" stdDeviation="2.0"/><feColorMatrix in="blurOut" result="blurOut2" type="matrix" values="0 0 0 0 0 0 0 0 0 0 0 0 0 0 0 0 0 0 .4 0"/><feOffset dx="4.0" dy="4.0" in="blurOut2" result="blurOut3"/><feBlend in="SourceGraphic" in2="blurOut3" mode="normal"/></filter></defs><g><!--cluster de.gematik.ti.cardreader.provider.usb.tactivo.entities--><polygon fill="#FFFFFF" filter="url(#f1da2lg0ndjsju)" points="22,80,404,80,411,103.6094,414,103.6094,414,374,22,374,22,80" style="stroke: #000000; stroke-width: 1.5;"/><line style="stroke: #000000; stroke-width: 1.5;" x1="22" x2="411" y1="103.6094" y2="103.6094"/><text fill="#000000" font-family="sans-serif" font-size="14" font-weight="bold" lengthAdjust="spacingAndGlyphs" textLength="376" x="26" y="96.5332">de.gematik.ti.cardreader.provider.usb.tactivo.entities</text><!--class TactivoCard--><rect fill="#FEFECE" filter="url(#f1da2lg0ndjsju)" height="241.7031" id="TactivoCard" style="stroke: #A80036; stroke-width: 1.5;" width="153" x="141.5" y="116"/><ellipse cx="181.7" cy="132" fill="#ADD1B2" rx="11" ry="11" style="stroke: #A80036; stroke-width: 1.0;"/><path d="M183.7,128.5 Q183.9031,128 184.1375,127.75 Q184.3719,127.5 184.6375,127.5 Q185.1063,127.5 185.4031,127.7813 Q185.7,128.0625 185.7,128.7188 L185.7,130.2813 Q185.7,130.9375 185.4188,131.2188 Q185.1375,131.5 184.7,131.5 Q184.3094,131.5 184.0594,131.3281 Q183.8094,131.1563 183.7,130.7031 Q183.6531,130.3906 183.4813,130.2188 Q183.1688,129.8906 182.6063,129.6953 Q182.0438,129.5 181.4813,129.5 Q180.7781,129.5 180.1922,129.7813 Q179.6063,130.0625 179.1531,130.6875 Q178.7,131.3125 178.7,132.1719 L178.7,133.0938 Q178.7,134.125 179.5438,134.8125 Q180.3875,135.5 181.8875,135.5 Q182.7781,135.5 183.4031,135.2969 Q183.7625,135.1875 184.1688,134.8281 Q184.4344,134.625 184.575,134.5625 Q184.7156,134.5 184.8875,134.5 Q185.2156,134.5 185.4578,134.7578 Q185.7,135.0156 185.7,135.375 Q185.7,135.7188 185.3563,136.125 Q184.8563,136.7188 184.0594,137.0469 Q183.0125,137.5 181.7313,137.5 Q180.2313,137.5 179.0281,136.9063 Q178.0594,136.4375 177.3797,135.4219 Q176.7,134.4063 176.7,133.2031 L176.7,132.1094 Q176.7,130.8594 177.3016,129.7656 Q177.9031,128.6719 178.9578,128.0859 Q180.0125,127.5 181.2,127.5 Q181.9188,127.5 182.5438,127.75 Q183.1688,128 183.7,128.5 Z "/><text fill="#000000" font-family="sans-serif" font-size="12" lengthAdjust="spacingAndGlyphs" textLength="65" x="201.3" y="136.9102">TactivoCard</text><line style="stroke: #A80036; stroke-width: 1.5;" x1="142.5" x2="293.5" y1="148" y2="148"/><rect fill="none" height="6" style="stroke: #C82930; stroke-width: 1.0;" width="6" x="149.5" y="157.418"/><text fill="#000000" font-family="sans-serif" font-size="11" lengthAdjust="spacingAndGlyphs" textLength="91" x="161.5" y="163.4189">preciseCard : Card</text><rect fill="none" height="6" style="stroke: #C82930; stroke-width: 1.0;" width="6" x="149.5" y="171.2539"/><text fill="#000000" font-family="sans-serif" font-size="11" lengthAdjust="spacingAndGlyphs" textLength="87" x="161.5" y="177.2549">preciseATR : ATR</text><rect fill="none" height="6" style="stroke: #C82930; stroke-width: 1.0;" width="6" x="149.5" y="185.0898"/><text fill="#000000" font-family="sans-serif" font-size="11" lengthAdjust="spacingAndGlyphs" textLength="109" x="161.5" y="191.0908">channel : CardChannel</text><rect fill="none" height="6" style="stroke: #C82930; stroke-width: 1.0;" width="6" x="149.5" y="198.9258"/><text fill="#000000" font-family="sans-serif" font-size="11" lengthAdjust="spacingAndGlyphs" textLength="114" x="161.5" y="204.9268">preciseATRbyte : byte[]</text><rect fill="none" height="6" style="stroke: #C82930; stroke-width: 1.0;" width="6" x="149.5" y="212.7617"/><text fill="#000000" font-family="sans-serif" font-size="11" lengthAdjust="spacingAndGlyphs" textLength="43" x="161.5" y="218.7627">atr : ATR</text><line style="stroke: #A80036; stroke-width: 1.5;" x1="142.5" x2="293.5" y1="225.1797" y2="225.1797"/><ellipse cx="152.5" cy="237.5977" fill="#84BE84" rx="3" ry="3" style="stroke: #038048; stroke-width: 1.0;"/><text fill="#000000" font-family="sans-serif" font-size="11" lengthAdjust="spacingAndGlyphs" textLength="66" x="161.5" y="240.5986">TactivoCard()</text><ellipse cx="152.5" cy="251.4336" fill="#84BE84" rx="3" ry="3" style="stroke: #038048; stroke-width: 1.0;"/><text fill="#000000" font-family="sans-serif" font-size="11" lengthAdjust="spacingAndGlyphs" textLength="44" x="161.5" y="254.4346">getATR()</text><ellipse cx="152.5" cy="265.2695" fill="#84BE84" rx="3" ry="3" style="stroke: #038048; stroke-width: 1.0;"/><text fill="#000000" font-family="sans-serif" font-size="11" lengthAdjust="spacingAndGlyphs" textLength="62" x="161.5" y="268.2705">getProtocol()</text><ellipse cx="152.5" cy="279.1055" fill="#84BE84" rx="3" ry="3" style="stroke: #038048; stroke-width: 1.0;"/><text fill="#000000" font-family="sans-serif" font-size="11" lengthAdjust="spacingAndGlyphs" textLength="89" x="161.5" y="282.1064">getBasicChannel()</text><ellipse cx="152.5" cy="292.9414" fill="#84BE84" rx="3" ry="3" style="stroke: #038048; stroke-width: 1.0;"/><text fill="#000000" font-family="sans-serif" font-size="11" lengthAdjust="spacingAndGlyphs" textLength="105" x="161.5" y="295.9424">openLogicalChannel()</text><ellipse cx="152.5" cy="306.7773" fill="#84BE84" rx="3" ry="3" style="stroke: #038048; stroke-width: 1.0;"/><text fill="#000000" font-family="sans-serif" font-size="11" lengthAdjust="spacingAndGlyphs" textLength="80" x="161.5" y="309.7783">beginExclusive()</text><ellipse cx="152.5" cy="320.6133" fill="#84BE84" rx="3" ry="3" style="stroke: #038048; stroke-width: 1.0;"/><text fill="#000000" font-family="sans-serif" font-size="11" lengthAdjust="spacingAndGlyphs" textLength="72" x="161.5" y="323.6143">endExclusive()</text><ellipse cx="152.5" cy="334.4492" fill="#84BE84" rx="3" ry="3" style="stroke: #038048; stroke-width: 1.0;"/><text fill="#000000" font-family="sans-serif" font-size="11" lengthAdjust="spacingAndGlyphs" textLength="127" x="161.5" y="337.4502">transmitControlCommand()</text><ellipse cx="152.5" cy="348.2852" fill="#84BE84" rx="3" ry="3" style="stroke: #038048; stroke-width: 1.0;"/><text fill="#000000" font-family="sans-serif" font-size="11" lengthAdjust="spacingAndGlyphs" textLength="61" x="161.5" y="351.2861">disconnect()</text><!--class Card--><rect fill="#FEFECE" filter="url(#f1da2lg0ndjsju)" height="48" id="Card" style="stroke: #A80036; stroke-width: 1.5;" width="59" x="188.5" y="8"/><ellipse cx="203.5" cy="24" fill="#ADD1B2" rx="11" ry="11" style="stroke: #A80036; stroke-width: 1.0;"/><path d="M205.5,20.5 Q205.7031,20 205.9375,19.75 Q206.1719,19.5 206.4375,19.5 Q206.9063,19.5 207.2031,19.7813 Q207.5,20.0625 207.5,20.7188 L207.5,22.2813 Q207.5,22.9375 207.2188,23.2188 Q206.9375,23.5 206.5,23.5 Q206.1094,23.5 205.8594,23.3281 Q205.6094,23.1563 205.5,22.7031 Q205.4531,22.3906 205.2813,22.2188 Q204.9688,21.8906 204.4063,21.6953 Q203.8438,21.5 203.2813,21.5 Q202.5781,21.5 201.9922,21.7813 Q201.4063,22.0625 200.9531,22.6875 Q200.5,23.3125 200.5,24.1719 L200.5,25.0938 Q200.5,26.125 201.3438,26.8125 Q202.1875,27.5 203.6875,27.5 Q204.5781,27.5 205.2031,27.2969 Q205.5625,27.1875 205.9688,26.8281 Q206.2344,26.625 206.375,26.5625 Q206.5156,26.5 206.6875,26.5 Q207.0156,26.5 207.2578,26.7578 Q207.5,27.0156 207.5,27.375 Q207.5,27.7188 207.1563,28.125 Q206.6563,28.7188 205.8594,29.0469 Q204.8125,29.5 203.5313,29.5 Q202.0313,29.5 200.8281,28.9063 Q199.8594,28.4375 199.1797,27.4219 Q198.5,26.4063 198.5,25.2031 L198.5,24.1094 Q198.5,22.8594 199.1016,21.7656 Q199.7031,20.6719 200.7578,20.0859 Q201.8125,19.5 203,19.5 Q203.7188,19.5 204.3438,19.75 Q204.9688,20 205.5,20.5 Z "/><text fill="#000000" font-family="sans-serif" font-size="12" lengthAdjust="spacingAndGlyphs" textLength="27" x="217.5" y="28.9102">Card</text><line style="stroke: #A80036; stroke-width: 1.5;" x1="189.5" x2="246.5" y1="40" y2="40"/><line style="stroke: #A80036; stroke-width: 1.5;" x1="189.5" x2="246.5" y1="48" y2="48"/><!--link Card to TactivoCard--><path d="M218,76.703 C218,88.461 218,101.77 218,115.563 " fill="none" id="Card-TactivoCard" style="stroke: #A80036; stroke-width: 1.0;"/><polygon fill="none" points="211,76.287,218,56.287,225,76.287,211,76.287" style="stroke: #A80036; stroke-width: 1.0;"/><!--
@startuml

    package de.gematik.ti.cardreader.provider.usb.tactivo.entities {
      class TactivoCard {
          - preciseCard : Card
          - preciseATR : ATR
          - channel : CardChannel
          - preciseATRbyte : byte[]
          - atr : ATR
          + TactivoCard()
          + getATR()
          + getProtocol()
          + getBasicChannel()
          + openLogicalChannel()
          + beginExclusive()
          + endExclusive()
          + transmitControlCommand()
          + disconnect()
      }
    }
  TactivoCard -up-|> Card

@enduml

PlantUML version 1.2019.06(Fri May 24 19:10:25 CEST 2019)
(APACHE source distribution)
Java Runtime: OpenJDK Runtime Environment
JVM: OpenJDK 64-Bit Server VM
Java Version: 1.8.0_202-release-1483-b03
Operating System: Windows 7
OS Version: 6.1
Default Encoding: Cp1252
Language: de
Country: DE
--></g></svg>