<?xml version="1.0" encoding="UTF-8" standalone="no"?><svg xmlns="http://www.w3.org/2000/svg" xmlns:xlink="http://www.w3.org/1999/xlink" contentScriptType="application/ecmascript" contentStyleType="text/css" height="289px" preserveAspectRatio="none" style="width:436px;height:289px;" version="1.1" viewBox="0 0 436 289" width="436px" zoomAndPan="magnify"><defs><filter height="300%" id="fn4fkk4j5o6vb" width="300%" x="-1" y="-1"><feGaussianBlur result="blurOut" stdDeviation="2.0"/><feColorMatrix in="blurOut" result="blurOut2" type="matrix" values="0 0 0 0 0 0 0 0 0 0 0 0 0 0 0 0 0 0 .4 0"/><feOffset dx="4.0" dy="4.0" in="blurOut2" result="blurOut3"/><feBlend in="SourceGraphic" in2="blurOut3" mode="normal"/></filter></defs><g><!--cluster de.gematik.ti.cardreader.provider.usb.tactivo.entities--><polygon fill="#FFFFFF" filter="url(#fn4fkk4j5o6vb)" points="22,80,404,80,411,103.6094,414,103.6094,414,277,22,277,22,80" style="stroke: #000000; stroke-width: 1.5;"/><line style="stroke: #000000; stroke-width: 1.5;" x1="22" x2="411" y1="103.6094" y2="103.6094"/><text fill="#000000" font-family="sans-serif" font-size="14" font-weight="bold" lengthAdjust="spacingAndGlyphs" textLength="376" x="26" y="96.5332">de.gematik.ti.cardreader.provider.usb.tactivo.entities</text><!--class TactivoCardChannel--><rect fill="#FEFECE" filter="url(#fn4fkk4j5o6vb)" height="144.8516" id="TactivoCardChannel" style="stroke: #A80036; stroke-width: 1.5;" width="172" x="132" y="116"/><ellipse cx="159.6" cy="132" fill="#ADD1B2" rx="11" ry="11" style="stroke: #A80036; stroke-width: 1.0;"/><path d="M161.6,128.5 Q161.8031,128 162.0375,127.75 Q162.2719,127.5 162.5375,127.5 Q163.0063,127.5 163.3031,127.7813 Q163.6,128.0625 163.6,128.7188 L163.6,130.2813 Q163.6,130.9375 163.3188,131.2188 Q163.0375,131.5 162.6,131.5 Q162.2094,131.5 161.9594,131.3281 Q161.7094,131.1563 161.6,130.7031 Q161.5531,130.3906 161.3813,130.2188 Q161.0688,129.8906 160.5063,129.6953 Q159.9438,129.5 159.3813,129.5 Q158.6781,129.5 158.0922,129.7813 Q157.5063,130.0625 157.0531,130.6875 Q156.6,131.3125 156.6,132.1719 L156.6,133.0938 Q156.6,134.125 157.4438,134.8125 Q158.2875,135.5 159.7875,135.5 Q160.6781,135.5 161.3031,135.2969 Q161.6625,135.1875 162.0688,134.8281 Q162.3344,134.625 162.475,134.5625 Q162.6156,134.5 162.7875,134.5 Q163.1156,134.5 163.3578,134.7578 Q163.6,135.0156 163.6,135.375 Q163.6,135.7188 163.2563,136.125 Q162.7563,136.7188 161.9594,137.0469 Q160.9125,137.5 159.6313,137.5 Q158.1313,137.5 156.9281,136.9063 Q155.9594,136.4375 155.2797,135.4219 Q154.6,134.4063 154.6,133.2031 L154.6,132.1094 Q154.6,130.8594 155.2016,129.7656 Q155.8031,128.6719 156.8578,128.0859 Q157.9125,127.5 159.1,127.5 Q159.8188,127.5 160.4438,127.75 Q161.0688,128 161.6,128.5 Z "/><text fill="#000000" font-family="sans-serif" font-size="12" lengthAdjust="spacingAndGlyphs" textLength="112" x="176.4" y="136.9102">TactivoCardChannel</text><line style="stroke: #A80036; stroke-width: 1.5;" x1="133" x2="303" y1="148" y2="148"/><rect fill="none" height="6" style="stroke: #C82930; stroke-width: 1.0;" width="6" x="140" y="157.418"/><text fill="#000000" font-family="sans-serif" font-size="11" lengthAdjust="spacingAndGlyphs" textLength="146" x="152" y="163.4189">preciseChannel : CardChannel</text><line style="stroke: #A80036; stroke-width: 1.5;" x1="133" x2="303" y1="169.8359" y2="169.8359"/><ellipse cx="143" cy="182.2539" fill="#84BE84" rx="3" ry="3" style="stroke: #038048; stroke-width: 1.0;"/><text fill="#000000" font-family="sans-serif" font-size="11" lengthAdjust="spacingAndGlyphs" textLength="105" x="152" y="185.2549">TactivoCardChannel()</text><ellipse cx="143" cy="196.0898" fill="#84BE84" rx="3" ry="3" style="stroke: #038048; stroke-width: 1.0;"/><text fill="#000000" font-family="sans-serif" font-size="11" lengthAdjust="spacingAndGlyphs" textLength="46" x="152" y="199.0908">getCard()</text><ellipse cx="143" cy="209.9258" fill="#84BE84" rx="3" ry="3" style="stroke: #038048; stroke-width: 1.0;"/><text fill="#000000" font-family="sans-serif" font-size="11" lengthAdjust="spacingAndGlyphs" textLength="99" x="152" y="212.9268">getChannelNumber()</text><ellipse cx="143" cy="223.7617" fill="#84BE84" rx="3" ry="3" style="stroke: #038048; stroke-width: 1.0;"/><text fill="#000000" font-family="sans-serif" font-size="11" lengthAdjust="spacingAndGlyphs" textLength="46" x="152" y="226.7627">transmit()</text><ellipse cx="143" cy="237.5977" fill="#84BE84" rx="3" ry="3" style="stroke: #038048; stroke-width: 1.0;"/><text fill="#000000" font-family="sans-serif" font-size="11" lengthAdjust="spacingAndGlyphs" textLength="46" x="152" y="240.5986">transmit()</text><ellipse cx="143" cy="251.4336" fill="#84BE84" rx="3" ry="3" style="stroke: #038048; stroke-width: 1.0;"/><text fill="#000000" font-family="sans-serif" font-size="11" lengthAdjust="spacingAndGlyphs" textLength="34" x="152" y="254.4346">close()</text><!--class CardChannel--><rect fill="#FEFECE" filter="url(#fn4fkk4j5o6vb)" height="48" id="CardChannel" style="stroke: #A80036; stroke-width: 1.5;" width="106" x="165" y="8"/><ellipse cx="180" cy="24" fill="#ADD1B2" rx="11" ry="11" style="stroke: #A80036; stroke-width: 1.0;"/><path d="M182,20.5 Q182.2031,20 182.4375,19.75 Q182.6719,19.5 182.9375,19.5 Q183.4063,19.5 183.7031,19.7813 Q184,20.0625 184,20.7188 L184,22.2813 Q184,22.9375 183.7188,23.2188 Q183.4375,23.5 183,23.5 Q182.6094,23.5 182.3594,23.3281 Q182.1094,23.1563 182,22.7031 Q181.9531,22.3906 181.7813,22.2188 Q181.4688,21.8906 180.9063,21.6953 Q180.3438,21.5 179.7813,21.5 Q179.0781,21.5 178.4922,21.7813 Q177.9063,22.0625 177.4531,22.6875 Q177,23.3125 177,24.1719 L177,25.0938 Q177,26.125 177.8438,26.8125 Q178.6875,27.5 180.1875,27.5 Q181.0781,27.5 181.7031,27.2969 Q182.0625,27.1875 182.4688,26.8281 Q182.7344,26.625 182.875,26.5625 Q183.0156,26.5 183.1875,26.5 Q183.5156,26.5 183.7578,26.7578 Q184,27.0156 184,27.375 Q184,27.7188 183.6563,28.125 Q183.1563,28.7188 182.3594,29.0469 Q181.3125,29.5 180.0313,29.5 Q178.5313,29.5 177.3281,28.9063 Q176.3594,28.4375 175.6797,27.4219 Q175,26.4063 175,25.2031 L175,24.1094 Q175,22.8594 175.6016,21.7656 Q176.2031,20.6719 177.2578,20.0859 Q178.3125,19.5 179.5,19.5 Q180.2188,19.5 180.8438,19.75 Q181.4688,20 182,20.5 Z "/><text fill="#000000" font-family="sans-serif" font-size="12" lengthAdjust="spacingAndGlyphs" textLength="74" x="194" y="28.9102">CardChannel</text><line style="stroke: #A80036; stroke-width: 1.5;" x1="166" x2="270" y1="40" y2="40"/><line style="stroke: #A80036; stroke-width: 1.5;" x1="166" x2="270" y1="48" y2="48"/><!--link CardChannel to TactivoCardChannel--><path d="M218,76.388 C218,88.701 218,102.445 218,115.955 " fill="none" id="CardChannel-TactivoCardChannel" style="stroke: #A80036; stroke-width: 1.0;"/><polygon fill="none" points="211,76.13,218,56.13,225,76.13,211,76.13" style="stroke: #A80036; stroke-width: 1.0;"/><!--
@startuml

    package de.gematik.ti.cardreader.provider.usb.tactivo.entities {
      class TactivoCardChannel {
          - preciseChannel : CardChannel
          + TactivoCardChannel()
          + getCard()
          + getChannelNumber()
          + transmit()
          + transmit()
          + close()
      }
    }

  TactivoCardChannel -up-|> CardChannel

@enduml

PlantUML version 1.2019.06(Fri May 24 19:10:25 CEST 2019)
(APACHE source distribution)
Java Runtime: OpenJDK Runtime Environment
JVM: OpenJDK 64-Bit Server VM
Java Version: 1.8.0_202-release-1483-b03
Operating System: Windows 7
OS Version: 6.1
Default Encoding: Cp1252
Language: de
Country: DE
--></g></svg>