<?xml version="1.0" encoding="UTF-8" standalone="no"?><svg xmlns="http://www.w3.org/2000/svg" xmlns:xlink="http://www.w3.org/1999/xlink" contentScriptType="application/ecmascript" contentStyleType="text/css" height="358px" preserveAspectRatio="none" style="width:436px;height:358px;" version="1.1" viewBox="0 0 436 358" width="436px" zoomAndPan="magnify"><defs><filter height="300%" id="f138t3ox82cwiv" width="300%" x="-1" y="-1"><feGaussianBlur result="blurOut" stdDeviation="2.0"/><feColorMatrix in="blurOut" result="blurOut2" type="matrix" values="0 0 0 0 0 0 0 0 0 0 0 0 0 0 0 0 0 0 .4 0"/><feOffset dx="4.0" dy="4.0" in="blurOut2" result="blurOut3"/><feBlend in="SourceGraphic" in2="blurOut3" mode="normal"/></filter></defs><g><!--cluster de.gematik.ti.cardreader.provider.usb.tactivo.entities--><polygon fill="#FFFFFF" filter="url(#f138t3ox82cwiv)" points="22,80,404,80,411,103.6094,414,103.6094,414,346,22,346,22,80" style="stroke: #000000; stroke-width: 1.5;"/><line style="stroke: #000000; stroke-width: 1.5;" x1="22" x2="411" y1="103.6094" y2="103.6094"/><text fill="#000000" font-family="sans-serif" font-size="14" font-weight="bold" lengthAdjust="spacingAndGlyphs" textLength="376" x="26" y="96.5332">de.gematik.ti.cardreader.provider.usb.tactivo.entities</text><!--class TactivoCardReader--><rect fill="#FEFECE" filter="url(#f138t3ox82cwiv)" height="214.0313" id="TactivoCardReader" style="stroke: #A80036; stroke-width: 1.5;" width="174" x="131" y="116"/><ellipse cx="162.2" cy="132" fill="#ADD1B2" rx="11" ry="11" style="stroke: #A80036; stroke-width: 1.0;"/><path d="M164.2,128.5 Q164.4031,128 164.6375,127.75 Q164.8719,127.5 165.1375,127.5 Q165.6063,127.5 165.9031,127.7813 Q166.2,128.0625 166.2,128.7188 L166.2,130.2813 Q166.2,130.9375 165.9188,131.2188 Q165.6375,131.5 165.2,131.5 Q164.8094,131.5 164.5594,131.3281 Q164.3094,131.1563 164.2,130.7031 Q164.1531,130.3906 163.9813,130.2188 Q163.6688,129.8906 163.1063,129.6953 Q162.5438,129.5 161.9813,129.5 Q161.2781,129.5 160.6922,129.7813 Q160.1063,130.0625 159.6531,130.6875 Q159.2,131.3125 159.2,132.1719 L159.2,133.0938 Q159.2,134.125 160.0438,134.8125 Q160.8875,135.5 162.3875,135.5 Q163.2781,135.5 163.9031,135.2969 Q164.2625,135.1875 164.6688,134.8281 Q164.9344,134.625 165.075,134.5625 Q165.2156,134.5 165.3875,134.5 Q165.7156,134.5 165.9578,134.7578 Q166.2,135.0156 166.2,135.375 Q166.2,135.7188 165.8563,136.125 Q165.3563,136.7188 164.5594,137.0469 Q163.5125,137.5 162.2313,137.5 Q160.7313,137.5 159.5281,136.9063 Q158.5594,136.4375 157.8797,135.4219 Q157.2,134.4063 157.2,133.2031 L157.2,132.1094 Q157.2,130.8594 157.8016,129.7656 Q158.4031,128.6719 159.4578,128.0859 Q160.5125,127.5 161.7,127.5 Q162.4188,127.5 163.0438,127.75 Q163.6688,128 164.2,128.5 Z "/><text fill="#000000" font-family="sans-serif" font-size="12" lengthAdjust="spacingAndGlyphs" textLength="106" x="179.8" y="136.9102">TactivoCardReader</text><line style="stroke: #A80036; stroke-width: 1.5;" x1="132" x2="304" y1="148" y2="148"/><rect fill="none" height="6" style="stroke: #C82930; stroke-width: 1.0;" width="6" x="139" y="157.418"/><text fill="#000000" font-family="sans-serif" font-size="11" lengthAdjust="spacingAndGlyphs" textLength="148" x="151" y="163.4189">preciseTerminal : CardTerminal</text><rect fill="none" height="6" style="stroke: #C82930; stroke-width: 1.0;" width="6" x="139" y="171.2539"/><text fill="#000000" font-family="sans-serif" font-size="11" lengthAdjust="spacingAndGlyphs" textLength="91" x="151" y="177.2549">preciseCard : Card</text><rect fill="none" height="6" style="stroke: #C82930; stroke-width: 1.0;" width="6" x="139" y="185.0898"/><text fill="#000000" font-family="sans-serif" font-size="11" lengthAdjust="spacingAndGlyphs" text-decoration="underline" textLength="111" x="151" y="191.0908">PROTOCOL_T1 : String</text><line style="stroke: #A80036; stroke-width: 1.5;" x1="132" x2="304" y1="197.5078" y2="197.5078"/><ellipse cx="142" cy="209.9258" fill="#84BE84" rx="3" ry="3" style="stroke: #038048; stroke-width: 1.0;"/><text fill="#000000" font-family="sans-serif" font-size="11" lengthAdjust="spacingAndGlyphs" textLength="101" x="151" y="212.9268">TactivoCardReader()</text><ellipse cx="142" cy="223.7617" fill="#84BE84" rx="3" ry="3" style="stroke: #038048; stroke-width: 1.0;"/><text fill="#000000" font-family="sans-serif" font-size="11" lengthAdjust="spacingAndGlyphs" textLength="45" x="151" y="226.7627">initialize()</text><ellipse cx="142" cy="237.5977" fill="#84BE84" rx="3" ry="3" style="stroke: #038048; stroke-width: 1.0;"/><text fill="#000000" font-family="sans-serif" font-size="11" lengthAdjust="spacingAndGlyphs" textLength="59" x="151" y="240.5986">isInitialized()</text><ellipse cx="142" cy="251.4336" fill="#84BE84" rx="3" ry="3" style="stroke: #038048; stroke-width: 1.0;"/><text fill="#000000" font-family="sans-serif" font-size="11" lengthAdjust="spacingAndGlyphs" textLength="47" x="151" y="254.4346">connect()</text><ellipse cx="142" cy="265.2695" fill="#84BE84" rx="3" ry="3" style="stroke: #038048; stroke-width: 1.0;"/><text fill="#000000" font-family="sans-serif" font-size="11" lengthAdjust="spacingAndGlyphs" textLength="47" x="151" y="268.2705">connect()</text><ellipse cx="142" cy="279.1055" fill="#84BE84" rx="3" ry="3" style="stroke: #038048; stroke-width: 1.0;"/><text fill="#000000" font-family="sans-serif" font-size="11" lengthAdjust="spacingAndGlyphs" textLength="50" x="151" y="282.1064">getName()</text><ellipse cx="142" cy="292.9414" fill="#84BE84" rx="3" ry="3" style="stroke: #038048; stroke-width: 1.0;"/><text fill="#000000" font-family="sans-serif" font-size="11" lengthAdjust="spacingAndGlyphs" textLength="76" x="151" y="295.9424">isCardPresent()</text><ellipse cx="142" cy="306.7773" fill="#84BE84" rx="3" ry="3" style="stroke: #038048; stroke-width: 1.0;"/><text fill="#000000" font-family="sans-serif" font-size="11" lengthAdjust="spacingAndGlyphs" textLength="103" x="151" y="309.7783">waitForCardAbsent()</text><ellipse cx="142" cy="320.6133" fill="#84BE84" rx="3" ry="3" style="stroke: #038048; stroke-width: 1.0;"/><text fill="#000000" font-family="sans-serif" font-size="11" lengthAdjust="spacingAndGlyphs" textLength="105" x="151" y="323.6143">waitForCardPresent()</text><!--class ICardReader--><rect fill="#FEFECE" filter="url(#f138t3ox82cwiv)" height="48" id="ICardReader" style="stroke: #A80036; stroke-width: 1.5;" width="103" x="166.5" y="8"/><ellipse cx="181.5" cy="24" fill="#ADD1B2" rx="11" ry="11" style="stroke: #A80036; stroke-width: 1.0;"/><path d="M183.5,20.5 Q183.7031,20 183.9375,19.75 Q184.1719,19.5 184.4375,19.5 Q184.9063,19.5 185.2031,19.7813 Q185.5,20.0625 185.5,20.7188 L185.5,22.2813 Q185.5,22.9375 185.2188,23.2188 Q184.9375,23.5 184.5,23.5 Q184.1094,23.5 183.8594,23.3281 Q183.6094,23.1563 183.5,22.7031 Q183.4531,22.3906 183.2813,22.2188 Q182.9688,21.8906 182.4063,21.6953 Q181.8438,21.5 181.2813,21.5 Q180.5781,21.5 179.9922,21.7813 Q179.4063,22.0625 178.9531,22.6875 Q178.5,23.3125 178.5,24.1719 L178.5,25.0938 Q178.5,26.125 179.3438,26.8125 Q180.1875,27.5 181.6875,27.5 Q182.5781,27.5 183.2031,27.2969 Q183.5625,27.1875 183.9688,26.8281 Q184.2344,26.625 184.375,26.5625 Q184.5156,26.5 184.6875,26.5 Q185.0156,26.5 185.2578,26.7578 Q185.5,27.0156 185.5,27.375 Q185.5,27.7188 185.1563,28.125 Q184.6563,28.7188 183.8594,29.0469 Q182.8125,29.5 181.5313,29.5 Q180.0313,29.5 178.8281,28.9063 Q177.8594,28.4375 177.1797,27.4219 Q176.5,26.4063 176.5,25.2031 L176.5,24.1094 Q176.5,22.8594 177.1016,21.7656 Q177.7031,20.6719 178.7578,20.0859 Q179.8125,19.5 181,19.5 Q181.7188,19.5 182.3438,19.75 Q182.9688,20 183.5,20.5 Z "/><text fill="#000000" font-family="sans-serif" font-size="12" lengthAdjust="spacingAndGlyphs" textLength="71" x="195.5" y="28.9102">ICardReader</text><line style="stroke: #A80036; stroke-width: 1.5;" x1="167.5" x2="268.5" y1="40" y2="40"/><line style="stroke: #A80036; stroke-width: 1.5;" x1="167.5" x2="268.5" y1="48" y2="48"/><!--link ICardReader to TactivoCardReader--><path d="M218,76.339 C218,88.303 218,101.834 218,115.709 " fill="none" id="ICardReader-TactivoCardReader" style="stroke: #A80036; stroke-width: 1.0;"/><polygon fill="none" points="211,76.175,218,56.175,225,76.175,211,76.175" style="stroke: #A80036; stroke-width: 1.0;"/><!--
@startuml

    package de.gematik.ti.cardreader.provider.usb.tactivo.entities {
      class TactivoCardReader {
          - preciseTerminal : CardTerminal
          - preciseCard : Card
          {static} - PROTOCOL_T1 : String
          + TactivoCardReader()
          + initialize()
          + isInitialized()
          + connect()
          + connect()
          + getName()
          + isCardPresent()
          + waitForCardAbsent()
          + waitForCardPresent()
      }
    }

  TactivoCardReader -up-|> ICardReader

@enduml

PlantUML version 1.2019.06(Fri May 24 19:10:25 CEST 2019)
(APACHE source distribution)
Java Runtime: OpenJDK Runtime Environment
JVM: OpenJDK 64-Bit Server VM
Java Version: 1.8.0_202-release-1483-b03
Operating System: Windows 7
OS Version: 6.1
Default Encoding: Cp1252
Language: de
Country: DE
--></g></svg>