<?xml version="1.0" encoding="UTF-8" standalone="no"?><svg xmlns="http://www.w3.org/2000/svg" xmlns:xlink="http://www.w3.org/1999/xlink" contentScriptType="application/ecmascript" contentStyleType="text/css" height="247px" preserveAspectRatio="none" style="width:433px;height:247px;" version="1.1" viewBox="0 0 433 247" width="433px" zoomAndPan="magnify"><defs><filter height="300%" id="f1wlb130yy1gm" width="300%" x="-1" y="-1"><feGaussianBlur result="blurOut" stdDeviation="2.0"/><feColorMatrix in="blurOut" result="blurOut2" type="matrix" values="0 0 0 0 0 0 0 0 0 0 0 0 0 0 0 0 0 0 .4 0"/><feOffset dx="4.0" dy="4.0" in="blurOut2" result="blurOut3"/><feBlend in="SourceGraphic" in2="blurOut3" mode="normal"/></filter></defs><g><!--cluster de.gematik.ti.cardreader.provider.usb.tactivo.control--><polygon fill="#FFFFFF" filter="url(#f1wlb130yy1gm)" points="22,80,401,80,408,103.6094,411,103.6094,411,235,22,235,22,80" style="stroke: #000000; stroke-width: 1.5;"/><line style="stroke: #000000; stroke-width: 1.5;" x1="22" x2="408" y1="103.6094" y2="103.6094"/><text fill="#000000" font-family="sans-serif" font-size="14" font-weight="bold" lengthAdjust="spacingAndGlyphs" textLength="373" x="26" y="96.5332">de.gematik.ti.cardreader.provider.usb.tactivo.control</text><!--class TactivoCardReaderProvider--><rect fill="#FEFECE" filter="url(#f1wlb130yy1gm)" height="103.3438" id="TactivoCardReaderProvider" style="stroke: #A80036; stroke-width: 1.5;" width="215" x="108.5" y="116"/><ellipse cx="137.9" cy="132" fill="#ADD1B2" rx="11" ry="11" style="stroke: #A80036; stroke-width: 1.0;"/><path d="M139.9,128.5 Q140.1031,128 140.3375,127.75 Q140.5719,127.5 140.8375,127.5 Q141.3063,127.5 141.6031,127.7813 Q141.9,128.0625 141.9,128.7188 L141.9,130.2813 Q141.9,130.9375 141.6188,131.2188 Q141.3375,131.5 140.9,131.5 Q140.5094,131.5 140.2594,131.3281 Q140.0094,131.1563 139.9,130.7031 Q139.8531,130.3906 139.6813,130.2188 Q139.3688,129.8906 138.8063,129.6953 Q138.2438,129.5 137.6813,129.5 Q136.9781,129.5 136.3922,129.7813 Q135.8063,130.0625 135.3531,130.6875 Q134.9,131.3125 134.9,132.1719 L134.9,133.0938 Q134.9,134.125 135.7438,134.8125 Q136.5875,135.5 138.0875,135.5 Q138.9781,135.5 139.6031,135.2969 Q139.9625,135.1875 140.3688,134.8281 Q140.6344,134.625 140.775,134.5625 Q140.9156,134.5 141.0875,134.5 Q141.4156,134.5 141.6578,134.7578 Q141.9,135.0156 141.9,135.375 Q141.9,135.7188 141.5563,136.125 Q141.0563,136.7188 140.2594,137.0469 Q139.2125,137.5 137.9313,137.5 Q136.4313,137.5 135.2281,136.9063 Q134.2594,136.4375 133.5797,135.4219 Q132.9,134.4063 132.9,133.2031 L132.9,132.1094 Q132.9,130.8594 133.5016,129.7656 Q134.1031,128.6719 135.1578,128.0859 Q136.2125,127.5 137.4,127.5 Q138.1188,127.5 138.7438,127.75 Q139.3688,128 139.9,128.5 Z "/><text fill="#000000" font-family="sans-serif" font-size="12" lengthAdjust="spacingAndGlyphs" textLength="151" x="155.1" y="136.9102">TactivoCardReaderProvider</text><line style="stroke: #A80036; stroke-width: 1.5;" x1="109.5" x2="322.5" y1="148" y2="148"/><rect fill="none" height="6" style="stroke: #C82930; stroke-width: 1.0;" width="6" x="116.5" y="157.418"/><text fill="#000000" font-family="sans-serif" font-size="11" lengthAdjust="spacingAndGlyphs" textLength="189" x="128.5" y="163.4189">providerDescriptor : ProviderDescriptor</text><line style="stroke: #A80036; stroke-width: 1.5;" x1="109.5" x2="322.5" y1="169.8359" y2="169.8359"/><ellipse cx="119.5" cy="182.2539" fill="#84BE84" rx="3" ry="3" style="stroke: #038048; stroke-width: 1.0;"/><text fill="#000000" font-family="sans-serif" font-size="11" lengthAdjust="spacingAndGlyphs" textLength="141" x="128.5" y="185.2549">TactivoCardReaderProvider()</text><ellipse cx="119.5" cy="196.0898" fill="#84BE84" rx="3" ry="3" style="stroke: #038048; stroke-width: 1.0;"/><text fill="#000000" font-family="sans-serif" font-size="11" lengthAdjust="spacingAndGlyphs" textLength="127" x="128.5" y="199.0908">getCardReaderController()</text><ellipse cx="119.5" cy="209.9258" fill="#84BE84" rx="3" ry="3" style="stroke: #038048; stroke-width: 1.0;"/><text fill="#000000" font-family="sans-serif" font-size="11" lengthAdjust="spacingAndGlyphs" textLength="73" x="128.5" y="212.9268">getDescriptor()</text><!--class ICardReaderControllerProvider--><rect fill="#FEFECE" filter="url(#f1wlb130yy1gm)" height="48" id="ICardReaderControllerProvider" style="stroke: #A80036; stroke-width: 1.5;" width="202" x="115" y="8"/><ellipse cx="130" cy="24" fill="#ADD1B2" rx="11" ry="11" style="stroke: #A80036; stroke-width: 1.0;"/><path d="M132,20.5 Q132.2031,20 132.4375,19.75 Q132.6719,19.5 132.9375,19.5 Q133.4063,19.5 133.7031,19.7813 Q134,20.0625 134,20.7188 L134,22.2813 Q134,22.9375 133.7188,23.2188 Q133.4375,23.5 133,23.5 Q132.6094,23.5 132.3594,23.3281 Q132.1094,23.1563 132,22.7031 Q131.9531,22.3906 131.7813,22.2188 Q131.4688,21.8906 130.9063,21.6953 Q130.3438,21.5 129.7813,21.5 Q129.0781,21.5 128.4922,21.7813 Q127.9063,22.0625 127.4531,22.6875 Q127,23.3125 127,24.1719 L127,25.0938 Q127,26.125 127.8438,26.8125 Q128.6875,27.5 130.1875,27.5 Q131.0781,27.5 131.7031,27.2969 Q132.0625,27.1875 132.4688,26.8281 Q132.7344,26.625 132.875,26.5625 Q133.0156,26.5 133.1875,26.5 Q133.5156,26.5 133.7578,26.7578 Q134,27.0156 134,27.375 Q134,27.7188 133.6563,28.125 Q133.1563,28.7188 132.3594,29.0469 Q131.3125,29.5 130.0313,29.5 Q128.5313,29.5 127.3281,28.9063 Q126.3594,28.4375 125.6797,27.4219 Q125,26.4063 125,25.2031 L125,24.1094 Q125,22.8594 125.6016,21.7656 Q126.2031,20.6719 127.2578,20.0859 Q128.3125,19.5 129.5,19.5 Q130.2188,19.5 130.8438,19.75 Q131.4688,20 132,20.5 Z "/><text fill="#000000" font-family="sans-serif" font-size="12" lengthAdjust="spacingAndGlyphs" textLength="170" x="144" y="28.9102">ICardReaderControllerProvider</text><line style="stroke: #A80036; stroke-width: 1.5;" x1="116" x2="316" y1="40" y2="40"/><line style="stroke: #A80036; stroke-width: 1.5;" x1="116" x2="316" y1="48" y2="48"/><!--link ICardReaderControllerProvider to TactivoCardReaderProvider--><path d="M216,76.463 C216,89.043 216,102.885 216,115.863 " fill="none" id="ICardReaderControllerProvider-TactivoCardReaderProvider" style="stroke: #A80036; stroke-width: 1.0;"/><polygon fill="none" points="209,76.254,216,56.254,223,76.254,209,76.254" style="stroke: #A80036; stroke-width: 1.0;"/><!--
@startuml

    package de.gematik.ti.cardreader.provider.usb.tactivo.control {
      class TactivoCardReaderProvider {
          - providerDescriptor : ProviderDescriptor
          + TactivoCardReaderProvider()
          + getCardReaderController()
          + getDescriptor()
      }
    }

  TactivoCardReaderProvider -up-|> ICardReaderControllerProvider

@enduml

PlantUML version 1.2019.06(Fri May 24 19:10:25 CEST 2019)
(APACHE source distribution)
Java Runtime: OpenJDK Runtime Environment
JVM: OpenJDK 64-Bit Server VM
Java Version: 1.8.0_202-release-1483-b03
Operating System: Windows 7
OS Version: 6.1
Default Encoding: Cp1252
Language: de
Country: DE
--></g></svg>