<?xml version="1.0" encoding="UTF-8" standalone="no"?><svg xmlns="http://www.w3.org/2000/svg" xmlns:xlink="http://www.w3.org/1999/xlink" contentScriptType="application/ecmascript" contentStyleType="text/css" height="358px" preserveAspectRatio="none" style="width:433px;height:358px;" version="1.1" viewBox="0 0 433 358" width="433px" zoomAndPan="magnify"><defs><filter height="300%" id="fncwm3tnf1pf4" width="300%" x="-1" y="-1"><feGaussianBlur result="blurOut" stdDeviation="2.0"/><feColorMatrix in="blurOut" result="blurOut2" type="matrix" values="0 0 0 0 0 0 0 0 0 0 0 0 0 0 0 0 0 0 .4 0"/><feOffset dx="4.0" dy="4.0" in="blurOut2" result="blurOut3"/><feBlend in="SourceGraphic" in2="blurOut3" mode="normal"/></filter></defs><g><!--cluster de.gematik.ti.cardreader.provider.usb.tactivo.control--><polygon fill="#FFFFFF" filter="url(#fncwm3tnf1pf4)" points="22,80,401,80,408,103.6094,411,103.6094,411,346,22,346,22,80" style="stroke: #000000; stroke-width: 1.5;"/><line style="stroke: #000000; stroke-width: 1.5;" x1="22" x2="408" y1="103.6094" y2="103.6094"/><text fill="#000000" font-family="sans-serif" font-size="14" font-weight="bold" lengthAdjust="spacingAndGlyphs" textLength="373" x="26" y="96.5332">de.gematik.ti.cardreader.provider.usb.tactivo.control</text><!--class TactivoCallback--><rect fill="#FEFECE" filter="url(#fncwm3tnf1pf4)" height="214.0313" id="TactivoCallback" style="stroke: #A80036; stroke-width: 1.5;" width="125" x="153.5" y="116"/><ellipse cx="171.65" cy="132" fill="#ADD1B2" rx="11" ry="11" style="stroke: #A80036; stroke-width: 1.0;"/><path d="M173.65,128.5 Q173.8531,128 174.0875,127.75 Q174.3219,127.5 174.5875,127.5 Q175.0563,127.5 175.3531,127.7813 Q175.65,128.0625 175.65,128.7188 L175.65,130.2813 Q175.65,130.9375 175.3688,131.2188 Q175.0875,131.5 174.65,131.5 Q174.2594,131.5 174.0094,131.3281 Q173.7594,131.1563 173.65,130.7031 Q173.6031,130.3906 173.4313,130.2188 Q173.1188,129.8906 172.5563,129.6953 Q171.9938,129.5 171.4313,129.5 Q170.7281,129.5 170.1422,129.7813 Q169.5563,130.0625 169.1031,130.6875 Q168.65,131.3125 168.65,132.1719 L168.65,133.0938 Q168.65,134.125 169.4938,134.8125 Q170.3375,135.5 171.8375,135.5 Q172.7281,135.5 173.3531,135.2969 Q173.7125,135.1875 174.1188,134.8281 Q174.3844,134.625 174.525,134.5625 Q174.6656,134.5 174.8375,134.5 Q175.1656,134.5 175.4078,134.7578 Q175.65,135.0156 175.65,135.375 Q175.65,135.7188 175.3063,136.125 Q174.8063,136.7188 174.0094,137.0469 Q172.9625,137.5 171.6813,137.5 Q170.1813,137.5 168.9781,136.9063 Q168.0094,136.4375 167.3297,135.4219 Q166.65,134.4063 166.65,133.2031 L166.65,132.1094 Q166.65,130.8594 167.2516,129.7656 Q167.8531,128.6719 168.9078,128.0859 Q169.9625,127.5 171.15,127.5 Q171.8688,127.5 172.4938,127.75 Q173.1188,128 173.65,128.5 Z "/><text fill="#000000" font-family="sans-serif" font-size="12" lengthAdjust="spacingAndGlyphs" textLength="86" x="186.35" y="136.9102">TactivoCallback</text><line style="stroke: #A80036; stroke-width: 1.5;" x1="154.5" x2="277.5" y1="148" y2="148"/><rect fill="none" height="6" style="stroke: #C82930; stroke-width: 1.0;" width="6" x="161.5" y="157.418"/><text fill="#000000" font-family="sans-serif" font-size="11" lengthAdjust="spacingAndGlyphs" textLength="82" x="173.5" y="163.4189">context : Context</text><rect fill="none" height="6" style="stroke: #C82930; stroke-width: 1.0;" width="6" x="161.5" y="171.2539"/><text fill="#000000" font-family="sans-serif" font-size="11" lengthAdjust="spacingAndGlyphs" textLength="65" x="173.5" y="177.2549">terminalId : int</text><polygon fill="none" points="164.5,184.0898,160.5,190.0898,168.5,190.0898" style="stroke: #1963A0; stroke-width: 1.0;"/><text fill="#000000" font-family="sans-serif" font-size="11" lengthAdjust="spacingAndGlyphs" textLength="81" x="173.5" y="191.0908">terminalType : int</text><rect fill="none" height="6" style="stroke: #C82930; stroke-width: 1.0;" width="6" x="161.5" y="198.9258"/><text fill="#000000" font-family="sans-serif" font-size="11" lengthAdjust="spacingAndGlyphs" text-decoration="underline" textLength="65" x="173.5" y="204.9268">LOG : Logger</text><line style="stroke: #A80036; stroke-width: 1.5;" x1="154.5" x2="277.5" y1="211.3438" y2="211.3438"/><ellipse cx="164.5" cy="223.7617" fill="#84BE84" rx="3" ry="3" style="stroke: #038048; stroke-width: 1.0;"/><text fill="#000000" font-family="sans-serif" font-size="11" lengthAdjust="spacingAndGlyphs" textLength="83" x="173.5" y="226.7627">TactivoCallback()</text><ellipse cx="164.5" cy="237.5977" fill="#84BE84" rx="3" ry="3" style="stroke: #038048; stroke-width: 1.0;"/><text fill="#000000" font-family="sans-serif" font-size="11" lengthAdjust="spacingAndGlyphs" textLength="47" x="173.5" y="240.5986">connect()</text><ellipse cx="164.5" cy="251.4336" fill="#84BE84" rx="3" ry="3" style="stroke: #038048; stroke-width: 1.0;"/><text fill="#000000" font-family="sans-serif" font-size="11" lengthAdjust="spacingAndGlyphs" textLength="90" x="173.5" y="254.4346">initializationFailed()</text><ellipse cx="164.5" cy="265.2695" fill="#84BE84" rx="3" ry="3" style="stroke: #038048; stroke-width: 1.0;"/><text fill="#000000" font-family="sans-serif" font-size="11" lengthAdjust="spacingAndGlyphs" textLength="51" x="173.5" y="268.2705">initialized()</text><ellipse cx="164.5" cy="279.1055" fill="#84BE84" rx="3" ry="3" style="stroke: #038048; stroke-width: 1.0;"/><text fill="#000000" font-family="sans-serif" font-size="11" lengthAdjust="spacingAndGlyphs" textLength="63" x="173.5" y="282.1064">uninitialized()</text><ellipse cx="164.5" cy="292.9414" fill="#84BE84" rx="3" ry="3" style="stroke: #038048; stroke-width: 1.0;"/><text fill="#000000" font-family="sans-serif" font-size="11" lengthAdjust="spacingAndGlyphs" textLength="59" x="173.5" y="295.9424">onReceive()</text><rect fill="#F24D5C" height="6" style="stroke: #C82930; stroke-width: 1.0;" width="6" x="161.5" y="303.7773"/><text fill="#000000" font-family="sans-serif" font-size="11" lengthAdjust="spacingAndGlyphs" textLength="99" x="173.5" y="309.7783">onDeviceDetached()</text><rect fill="#F24D5C" height="6" style="stroke: #C82930; stroke-width: 1.0;" width="6" x="161.5" y="317.6133"/><text fill="#000000" font-family="sans-serif" font-size="11" lengthAdjust="spacingAndGlyphs" textLength="97" x="173.5" y="323.6143">onDeviceAttached()</text><!--class PBInitializedCallback--><rect fill="#FEFECE" filter="url(#fncwm3tnf1pf4)" height="48" id="PBInitializedCallback" style="stroke: #A80036; stroke-width: 1.5;" width="147" x="231.5" y="8"/><ellipse cx="246.5" cy="24" fill="#ADD1B2" rx="11" ry="11" style="stroke: #A80036; stroke-width: 1.0;"/><path d="M248.5,20.5 Q248.7031,20 248.9375,19.75 Q249.1719,19.5 249.4375,19.5 Q249.9063,19.5 250.2031,19.7813 Q250.5,20.0625 250.5,20.7188 L250.5,22.2813 Q250.5,22.9375 250.2188,23.2188 Q249.9375,23.5 249.5,23.5 Q249.1094,23.5 248.8594,23.3281 Q248.6094,23.1563 248.5,22.7031 Q248.4531,22.3906 248.2813,22.2188 Q247.9688,21.8906 247.4063,21.6953 Q246.8438,21.5 246.2813,21.5 Q245.5781,21.5 244.9922,21.7813 Q244.4063,22.0625 243.9531,22.6875 Q243.5,23.3125 243.5,24.1719 L243.5,25.0938 Q243.5,26.125 244.3438,26.8125 Q245.1875,27.5 246.6875,27.5 Q247.5781,27.5 248.2031,27.2969 Q248.5625,27.1875 248.9688,26.8281 Q249.2344,26.625 249.375,26.5625 Q249.5156,26.5 249.6875,26.5 Q250.0156,26.5 250.2578,26.7578 Q250.5,27.0156 250.5,27.375 Q250.5,27.7188 250.1563,28.125 Q249.6563,28.7188 248.8594,29.0469 Q247.8125,29.5 246.5313,29.5 Q245.0313,29.5 243.8281,28.9063 Q242.8594,28.4375 242.1797,27.4219 Q241.5,26.4063 241.5,25.2031 L241.5,24.1094 Q241.5,22.8594 242.1016,21.7656 Q242.7031,20.6719 243.7578,20.0859 Q244.8125,19.5 246,19.5 Q246.7188,19.5 247.3438,19.75 Q247.9688,20 248.5,20.5 Z "/><text fill="#000000" font-family="sans-serif" font-size="12" lengthAdjust="spacingAndGlyphs" textLength="115" x="260.5" y="28.9102">PBInitializedCallback</text><line style="stroke: #A80036; stroke-width: 1.5;" x1="232.5" x2="377.5" y1="40" y2="40"/><line style="stroke: #A80036; stroke-width: 1.5;" x1="232.5" x2="377.5" y1="48" y2="48"/><!--class BroadcastReceiver--><rect fill="#FEFECE" filter="url(#fncwm3tnf1pf4)" height="48" id="BroadcastReceiver" style="stroke: #A80036; stroke-width: 1.5;" width="136" x="60" y="8"/><ellipse cx="75" cy="24" fill="#ADD1B2" rx="11" ry="11" style="stroke: #A80036; stroke-width: 1.0;"/><path d="M77,20.5 Q77.2031,20 77.4375,19.75 Q77.6719,19.5 77.9375,19.5 Q78.4063,19.5 78.7031,19.7813 Q79,20.0625 79,20.7188 L79,22.2813 Q79,22.9375 78.7188,23.2188 Q78.4375,23.5 78,23.5 Q77.6094,23.5 77.3594,23.3281 Q77.1094,23.1563 77,22.7031 Q76.9531,22.3906 76.7813,22.2188 Q76.4688,21.8906 75.9063,21.6953 Q75.3438,21.5 74.7813,21.5 Q74.0781,21.5 73.4922,21.7813 Q72.9063,22.0625 72.4531,22.6875 Q72,23.3125 72,24.1719 L72,25.0938 Q72,26.125 72.8438,26.8125 Q73.6875,27.5 75.1875,27.5 Q76.0781,27.5 76.7031,27.2969 Q77.0625,27.1875 77.4688,26.8281 Q77.7344,26.625 77.875,26.5625 Q78.0156,26.5 78.1875,26.5 Q78.5156,26.5 78.7578,26.7578 Q79,27.0156 79,27.375 Q79,27.7188 78.6563,28.125 Q78.1563,28.7188 77.3594,29.0469 Q76.3125,29.5 75.0313,29.5 Q73.5313,29.5 72.3281,28.9063 Q71.3594,28.4375 70.6797,27.4219 Q70,26.4063 70,25.2031 L70,24.1094 Q70,22.8594 70.6016,21.7656 Q71.2031,20.6719 72.2578,20.0859 Q73.3125,19.5 74.5,19.5 Q75.2188,19.5 75.8438,19.75 Q76.4688,20 77,20.5 Z "/><text fill="#000000" font-family="sans-serif" font-size="12" lengthAdjust="spacingAndGlyphs" textLength="104" x="89" y="28.9102">BroadcastReceiver</text><line style="stroke: #A80036; stroke-width: 1.5;" x1="61" x2="195" y1="40" y2="40"/><line style="stroke: #A80036; stroke-width: 1.5;" x1="61" x2="195" y1="48" y2="48"/><!--link PBInitializedCallback to TactivoCallback--><path d="M285.442,74.534 C279.603,86.934 272.917,101.131 266.052,115.709 " fill="none" id="PBInitializedCallback-TactivoCallback" style="stroke: #A80036; stroke-width: 1.0;"/><polygon fill="none" points="279.233,71.287,294.087,56.175,291.899,77.252,279.233,71.287" style="stroke: #A80036; stroke-width: 1.0;"/><!--link BroadcastReceiver to TactivoCallback--><path d="M147.338,74.534 C153.112,86.934 159.723,101.131 166.51,115.709 " fill="none" id="BroadcastReceiver-TactivoCallback" style="stroke: #A80036; stroke-width: 1.0;"/><polygon fill="none" points="140.887,77.261,138.791,56.175,153.578,71.351,140.887,77.261" style="stroke: #A80036; stroke-width: 1.0;"/><!--
@startuml


    package de.gematik.ti.cardreader.provider.usb.tactivo.control {
      class TactivoCallback {
          - context : Context
          - terminalId : int
          ~ terminalType : int
          {static} - LOG : Logger
          + TactivoCallback()
          + connect()
          + initializationFailed()
          + initialized()
          + uninitialized()
          + onReceive()
          - onDeviceDetached()
          - onDeviceAttached()
      }
    }

  TactivoCallback -up-|> PBInitializedCallback
  TactivoCallback -up-|> BroadcastReceiver

@enduml

PlantUML version 1.2019.06(Fri May 24 19:10:25 CEST 2019)
(APACHE source distribution)
Java Runtime: OpenJDK Runtime Environment
JVM: OpenJDK 64-Bit Server VM
Java Version: 1.8.0_202-release-1483-b03
Operating System: Windows 7
OS Version: 6.1
Default Encoding: Cp1252
Language: de
Country: DE
--></g></svg>